<svg width="140" height="204" viewBox="0 0 140 204" fill="none" xmlns="http://www.w3.org/2000/svg">
<path d="M37.9201 148.927C25.6669 179.752 29.1649 200.578 29.1649 200.578C40.7913 202.703 52.5997 203.574 64.4081 203.189C79.3708 202.703 93.2011 198.048 105.737 190.985C106.162 173.862 100.319 158.581 96.1532 149.898C69.362 162.872 45.9878 153.177 37.9201 148.927Z" fill="#484848" fill-opacity="0.99"/>
<path d="M41.5191 140.628C40.2048 143.462 38.9916 146.235 37.9402 148.927C45.9877 153.177 69.382 162.892 96.1531 149.898C93.8682 145.142 92.0687 142.369 92.0687 142.369C92.0687 142.369 57.9983 105.29 41.5191 140.628Z" fill="#FEF9EF"/>
<path d="M68.1284 202.966V192.3L77.3891 185.864L71.2625 194.425L71.8893 202.663L68.1284 202.966Z" fill="#543753"/>
<path d="M24.1098 73.8376C24.1098 73.8376 23.1797 74.1817 23.0179 83.6134C22.8562 93.045 22.1485 111.807 22.1485 111.807C22.1485 111.807 13.5955 103.853 12.9687 99.8456C12.3419 95.8381 12.6047 92.2355 12.1801 90.0293C11.7555 87.8232 11.6746 81.7918 11.8566 80.6584C12.0386 79.525 9.16734 79.3428 8.37877 81.0227C7.5902 82.7026 7.32734 88.2887 6.92294 88.4911C6.51855 88.6935 1.88821 89.1186 1.44337 90.1305C0.998532 91.1425 1.78711 92.9843 1.09963 94.5225C0.412158 96.0607 1.16029 97.1537 1.09963 98.3276C1.03897 99.5015 0.755894 99.9467 1.28161 101.728C1.80733 103.509 1.90842 105.007 2.75766 105.29L3.60689 105.573L6.5792 106.585C6.5792 106.585 19.3177 135.305 25.6263 135.933C31.9349 136.56 35.2307 131.541 36.0193 127.493C36.8079 123.445 41.0338 99.1979 41.0338 99.1979L24.1098 73.8376Z" fill="#FFEDE5"/>
<path d="M31.2676 93.7938L38.2636 115.066L41.0337 99.1775L31.2676 93.7938Z" fill="#E0855C"/>
<path d="M22.1484 111.787C22.1484 111.787 28.0931 116.786 30.0544 120.895C30.0544 120.895 26.8799 112.475 22.2698 108.569L22.1484 111.787Z" fill="#E0855C"/>
<path d="M4.59766 105.169C4.59766 105.169 10.8051 105.007 11.3106 104.622C11.8161 104.238 11.8363 102.416 11.5735 102.193C11.5735 102.193 12.079 99.542 11.6139 98.8538C11.6139 98.8538 11.7959 96.8906 11.5937 95.7369C11.5937 95.7369 12.6249 101.647 12.5036 102.578C12.3823 103.509 12.8676 105.088 10.0772 105.553C7.28689 106.019 4.59766 105.169 4.59766 105.169Z" fill="#E0855C"/>
<path d="M11.614 98.8942C11.5938 98.8942 11.5938 98.8942 11.5736 98.8942C11.4725 98.874 11.3916 98.7728 11.4118 98.6716C11.6747 97.0322 11.2501 93.8546 11.2501 93.8343V93.7939V93.7534C11.4321 93.045 11.8162 91.0413 11.2905 90.4341C10.8255 89.8876 6.33666 89.7459 3.60698 89.7864C3.50588 89.7864 3.40479 89.7055 3.40479 89.584C3.40479 89.4626 3.48566 89.3816 3.60698 89.3816C4.82017 89.3614 10.8659 89.3209 11.5938 90.171C12.3217 91.021 11.7556 93.3891 11.6545 93.8141C11.6949 94.1987 12.0589 97.1132 11.796 98.7323C11.796 98.8335 11.6949 98.8942 11.614 98.8942Z" fill="#484848"/>
<path d="M11.4522 93.9963C11.4522 93.9963 11.432 93.9963 11.4522 93.9963L4.94146 93.6927C4.82014 93.6927 4.73926 93.5915 4.73926 93.4902C4.73926 93.3688 4.82014 93.2878 4.94146 93.2878L11.4522 93.5915C11.5736 93.5915 11.6544 93.6927 11.6544 93.7939C11.6544 93.9153 11.5533 93.9963 11.4522 93.9963Z" fill="#484848"/>
<path d="M11.5535 102.396H5.14385C5.02253 102.396 4.94165 102.315 4.94165 102.193C4.94165 102.072 5.02253 101.991 5.14385 101.991H11.5535C11.6749 101.991 11.7557 102.072 11.7557 102.193C11.7557 102.315 11.6749 102.396 11.5535 102.396Z" fill="#484848"/>
<path d="M11.6745 97.9835H4.3145C4.19318 97.9835 4.1123 97.9025 4.1123 97.7811C4.1123 97.6596 4.19318 97.5787 4.3145 97.5787H11.6745C11.7958 97.5787 11.8767 97.6596 11.8767 97.7811C11.8767 97.9025 11.7958 97.9835 11.6745 97.9835Z" fill="#484848"/>
<path d="M121.428 63.9809L133.681 63.5154C134.207 63.4952 134.652 63.9 134.672 64.4262L135.622 89.7257C135.643 90.252 135.238 90.6972 134.713 90.7175L122.459 91.183C121.934 91.2032 121.489 90.7984 121.469 90.2722L120.518 64.9727C120.498 64.4262 120.902 64.0012 121.428 63.9809Z" fill="black"/>
<path d="M122.419 90.3531C122.338 90.3531 122.277 90.2924 122.277 90.2115L121.327 64.9119C121.327 64.8715 121.347 64.831 121.367 64.8107C121.388 64.7905 121.428 64.7703 121.468 64.7703L133.722 64.3047C133.803 64.3047 133.863 64.3655 133.863 64.4464L134.814 89.746C134.814 89.8269 134.753 89.8876 134.672 89.8876L122.419 90.3531Z" fill="#FEF9EF"/>
<path d="M83.4348 60.8438C83.4348 60.8438 96.2946 62.1391 98.6806 72.5827C101.066 83.0264 105.474 107.84 105.474 107.84C105.474 107.84 114.856 92.8021 115.605 90.4138C116.353 88.0256 118.779 79.95 118.698 77.1974C118.617 74.4448 121.307 76.408 121.307 79.6868L121.711 90.5353C121.731 90.8996 122.034 91.1829 122.398 91.1627H122.419L134.834 90.2317C135.258 90.2114 135.561 89.8471 135.541 89.4221V89.2804C135.541 89.2804 134.652 87.4386 134.914 86.5886C135.177 85.7385 137.3 85.6575 137.543 85.8599C137.786 86.0623 139.1 88.5923 139.06 89.2804C139.019 89.9686 137.482 92.114 136.471 92.4378C135.46 92.7616 125.391 95.1904 123.329 98.3073C121.266 101.424 112.248 128.727 104.928 130.832C97.6089 132.937 90.4713 113.082 88.7931 107.273C87.1148 101.465 83.4348 60.8438 83.4348 60.8438Z" fill="#FFEDE5"/>
<path d="M86.6702 93.045C87.4587 99.7443 88.2473 105.371 88.7932 107.253C89.5818 109.965 91.5634 115.774 94.2121 120.955L95.0209 82.8038L86.6702 93.045Z" fill="#E0855C"/>
<path d="M135.197 78.6546C135.197 78.6546 139.585 80.9012 139.504 81.8524C139.423 82.8037 138.594 84.5038 137.745 84.4229C136.896 84.3419 135.298 83.4919 134.854 82.5001C134.409 81.5084 134.186 78.3308 135.197 78.6546Z" fill="#FFEDE5"/>
<path d="M135.42 81.9537C135.42 81.9537 139.808 84.2003 139.727 85.1515C139.646 86.1028 138.817 87.8029 137.968 87.722C137.118 87.641 135.521 86.7909 135.076 85.7992C134.631 84.8075 134.409 81.6298 135.42 81.9537Z" fill="#FFEDE5"/>
<path d="M135.42 74.6472C135.42 74.6472 139.808 76.8938 139.727 77.8451C139.646 78.7964 138.817 80.4965 137.968 80.4156C137.118 80.3346 135.521 79.4845 135.076 78.4928C134.631 77.501 134.409 74.3032 135.42 74.6472Z" fill="#FFEDE5"/>
<path d="M101.512 115.875C101.471 115.875 101.451 115.875 101.41 115.855C101.309 115.815 101.269 115.673 101.33 115.592L105.293 107.759C105.333 107.658 105.475 107.618 105.555 107.678C105.657 107.719 105.697 107.86 105.636 107.941L101.673 115.774C101.653 115.835 101.592 115.875 101.512 115.875Z" fill="#484848"/>
<path d="M44.7138 126.987C44.734 133.565 41.519 140.608 41.519 140.608C41.519 140.608 63.7811 153.116 92.0484 142.349C92.0484 142.349 88.5908 133.443 89.0356 124.133C66.1872 119.883 44.7138 126.987 44.7138 126.987Z" fill="#FFEDE5"/>
<path d="M24.1104 73.8377C22.4523 76.3271 28.8418 88.7138 34.9482 101.242C40.5086 88.7947 37.2532 73.6758 35.3728 67.1788C31.066 68.8385 25.7886 71.2875 24.1104 73.8377Z" fill="#FFEDE5"/>
<path d="M89.0356 124.153C89.0761 123.182 89.1772 122.21 89.3187 121.239C89.3996 120.652 89.5007 120.025 89.6018 119.357C71.4646 114.398 49.8699 120.065 43.7837 121.866C44.3701 123.87 44.7138 125.611 44.7138 126.987C44.7138 126.987 66.1873 119.883 89.0356 124.153Z" fill="#FEF9EF"/>
<path d="M34.948 101.91C34.8671 101.91 34.8064 101.87 34.766 101.789L30.257 92.0736C30.2165 91.9724 30.257 91.851 30.3581 91.8105C30.4591 91.77 30.5805 91.8105 30.6209 91.9117L35.1299 101.627C35.1704 101.728 35.1299 101.849 35.0288 101.89C35.0086 101.91 34.9682 101.91 34.948 101.91Z" fill="#484848"/>
<path d="M69.5237 144.798C69.8364 144.798 70.0898 144.544 70.0898 144.231C70.0898 143.918 69.8364 143.664 69.5237 143.664C69.211 143.664 68.9575 143.918 68.9575 144.231C68.9575 144.544 69.211 144.798 69.5237 144.798Z" fill="#E0855C"/>
<path d="M94.0502 83.998C94.0502 83.8564 94.0502 83.7147 94.0502 83.5933C94.0502 83.5325 94.0502 83.4516 94.0502 83.3909C94.0502 83.2289 94.0502 83.0873 94.03 82.9253C94.03 82.8849 94.03 82.8444 94.03 82.7837C94.03 82.5813 94.0097 82.3991 94.0097 82.217V82.0955C94.0097 81.9538 93.9895 81.7919 93.9895 81.6502C93.9895 81.5895 93.9895 81.5288 93.9693 81.4681C93.9693 81.3467 93.9491 81.2252 93.9491 81.124L93.9289 80.9216C93.9289 80.8204 93.9087 80.699 93.8884 80.5978C93.8884 80.5371 93.8682 80.4763 93.8682 80.3954C93.848 80.2739 93.848 80.1728 93.8278 80.0513C93.8278 79.9906 93.8076 79.9501 93.8076 79.8894C93.7873 79.7275 93.7671 79.5656 93.7267 79.4036C92.1495 69.8101 83.4146 60.8237 83.4146 60.8237C83.4146 60.8237 86.8115 74.3235 87.9033 75.9022C91.8867 81.6907 94.1109 85.1719 93.8278 89.7866C93.848 89.5437 93.8682 89.3211 93.8884 89.0782C93.8884 89.0175 93.8884 88.9567 93.8884 88.896C93.9087 88.7139 93.9087 88.5317 93.9289 88.3698C93.9289 88.3091 93.9289 88.2281 93.9491 88.1674C93.9491 88.0055 93.9693 87.8436 93.9693 87.6614L93.9895 87.459C93.9895 87.2769 94.0097 87.1149 94.0097 86.953C94.0097 86.8923 94.0097 86.8518 94.0097 86.7911C94.03 86.3458 94.0502 85.9006 94.0502 85.4553C94.0502 85.3946 94.0502 85.3541 94.0502 85.2934C94.0502 85.1315 94.0502 84.9696 94.0502 84.8076V84.6052C94.0502 84.4636 94.0502 84.3219 94.0502 84.1802V83.998Z" fill="#FFEDE5"/>
<path d="M87.9035 75.9223C86.8116 74.3436 83.4349 60.8438 83.4349 60.8438H80.867L41.5192 65.0537C41.5192 65.0537 38.7491 65.8632 35.3724 67.1586C37.2326 73.6555 40.5082 88.7947 34.9478 101.222C38.6075 108.751 42.146 116.321 43.7636 121.866C49.8498 120.045 71.4445 114.398 89.5817 119.357C90.7747 111.706 93.0798 99.5217 93.8279 89.8067C94.111 85.1921 91.8868 81.7109 87.9035 75.9223Z" fill="#484848" fill-opacity="0.99"/>
<path d="M48.1106 111.18C47.1401 111.18 46.1291 111.058 45.0574 110.795C44.9564 110.775 44.8755 110.654 44.9159 110.552C44.9361 110.451 45.0574 110.37 45.1585 110.411C49.0003 111.382 52.1142 110.269 55.3898 109.115C58.5036 108.002 61.7186 106.869 65.8434 107.334C74.174 108.265 87.7415 106.019 87.883 105.998C88.0043 105.978 88.1054 106.059 88.1257 106.16C88.1459 106.262 88.065 106.383 87.9639 106.403C87.8224 106.424 74.1942 108.69 65.8232 107.759C61.7995 107.314 58.6249 108.427 55.5515 109.52C53.0847 110.35 50.7392 111.18 48.1106 111.18Z" fill="#484848"/>
<path d="M79.209 6.8849C79.209 6.8849 89.7638 7.93737 86.5893 21.9837C83.4148 36.03 86.5488 35.4025 89.2987 42.8305C92.0486 50.2584 77.6723 45.3402 77.6723 45.3402C77.6723 45.3402 84.9919 56.3101 46.0889 51.574C14.0001 47.6678 35.4129 30.9296 35.4129 30.9296C35.4129 30.9296 25.768 32.2047 37.3135 22.0039C45.4419 14.8188 49.769 -11.5939 79.209 6.8849Z" fill="black"/>
<path d="M72.2127 45.745C72.2127 45.745 68.9573 57.1804 73.4259 59.3055C76.8633 60.945 80.8668 60.8437 80.8668 60.8437C80.8668 60.8437 79.4919 91.1627 62.5072 91.4865C45.5226 91.8104 41.519 65.0536 41.519 65.0536C41.519 65.0536 48.4342 62.6248 50.4966 57.8685C52.5591 53.1122 52.6602 46.4534 52.6602 46.4534L72.2127 45.745Z" fill="#FFEDE5"/>
<path d="M80.3726 37.0996C82.1035 34.0987 82.0641 30.8324 80.2847 29.804C78.5053 28.7756 75.6596 30.3746 73.9287 33.3755C72.1978 36.3763 72.2372 39.6427 74.0166 40.6711C75.796 41.6994 78.6417 40.1004 80.3726 37.0996Z" fill="#E0855C"/>
<path d="M76.1356 37.3253C76.0749 37.3253 76.0344 37.305 75.994 37.2646C75.9131 37.1836 75.9131 37.0622 75.994 36.9812L79.0472 34.1072C79.1281 34.0262 79.2494 34.0262 79.3303 34.1072C79.4112 34.1881 79.4112 34.3096 79.3303 34.3905L76.2771 37.2646C76.2366 37.3253 76.1962 37.3253 76.1356 37.3253Z" fill="#484848"/>
<path d="M48.5582 38.3905C50.5577 37.917 51.5326 34.7997 50.7357 31.4277C49.9387 28.0557 47.6718 25.706 45.6724 26.1795C43.6729 26.6529 42.698 29.7703 43.4949 33.1423C44.2918 36.5142 46.5587 38.864 48.5582 38.3905Z" fill="#FFEDE5"/>
<path d="M71.2019 55.5005C70.5953 51.4121 72.2129 45.7248 72.2129 45.7248L52.6401 46.4534C52.6401 46.4534 52.6198 47.9309 52.3772 49.9954C52.3772 50.0156 62.1434 61.8558 71.2019 55.5005Z" fill="#E0855C"/>
<path d="M48.0305 34.2489C47.9699 34.2489 47.9092 34.2084 47.8688 34.1477L45.9277 31.1724C45.867 31.0712 45.8872 30.9498 45.9883 30.8891C46.0894 30.8284 46.2108 30.8486 46.2714 30.9498L48.2125 33.925C48.2732 34.0262 48.253 34.1477 48.1519 34.2084C48.1114 34.2489 48.071 34.2489 48.0305 34.2489Z" fill="#484848"/>
<path d="M49.3237 12.8961C49.3237 12.8961 42.368 50.4811 58.7057 54.3873C75.0433 58.2936 80.8666 23.2385 80.442 15.9523C80.0174 8.66601 51.75 6.45989 49.3237 12.8961Z" fill="#FFEDE5"/>
<path d="M71.0606 30.0795C71.5863 30.1807 71.9301 30.6867 71.8492 31.213L71.7481 31.7999C71.647 32.3261 71.1415 32.6702 70.6158 32.5892C70.0901 32.4881 69.7463 31.9821 69.8272 31.4558L69.9283 30.8689C70.0294 30.3426 70.5349 29.9783 71.0606 30.0795Z" fill="#484848"/>
<path d="M55.8348 28.3793C56.3807 28.3793 56.8054 28.8044 56.8054 29.3508V29.9378C56.8054 30.464 56.3807 30.9093 55.8348 30.9093C55.3091 30.9093 54.8643 30.4843 54.8643 29.9378V29.3508C54.8643 28.8044 55.2889 28.3793 55.8348 28.3793Z" fill="#484848"/>
<path d="M74.6192 29.0675C74.6192 29.0675 73.8913 27.9746 71.7885 27.6102C69.6856 27.2459 69.0183 27.3674 68.9981 26.6995C68.9779 26.0316 73.6891 24.9994 74.6192 29.0675Z" fill="#484848"/>
<path d="M52.782 26.2947C52.782 26.2947 53.8334 25.5054 55.9363 25.8495C58.0391 26.2138 58.6255 26.5376 58.8681 25.9102C59.1108 25.2828 55.0062 22.7528 52.782 26.2947Z" fill="#484848"/>
<path d="M56.7853 40.6244L65.5202 41.6161C65.5202 41.6161 64.1655 47.5261 60.3035 46.838C56.4618 46.17 56.7853 40.6244 56.7853 40.6244Z" fill="white"/>
<path d="M62.5678 39.1672C61.9612 39.1672 61.294 39.0053 60.6874 38.7219C60.5863 38.6814 60.5459 38.56 60.5863 38.4588C60.6267 38.3576 60.7481 38.3171 60.8492 38.3576C61.7388 38.7826 62.7296 38.8838 63.3969 38.6207C63.6799 38.5195 63.8619 38.3576 63.9428 38.1754C64.2057 37.548 64.1046 35.605 63.9832 33.3584L63.9428 32.5691C63.7204 28.4199 66.2074 27.6306 66.3085 27.5901C66.4096 27.5496 66.5309 27.6104 66.5512 27.7318C66.5916 27.833 66.5309 27.9544 66.4096 27.9747C66.3085 27.9949 64.1248 28.7235 64.327 32.5488L64.3674 33.3382C64.4887 35.7265 64.6101 37.629 64.2865 38.3374C64.1652 38.6207 63.9024 38.8636 63.5182 39.0053C63.2755 39.1267 62.9318 39.1672 62.5678 39.1672Z" fill="#484848"/>
<path d="M77.6722 33.8037C77.6722 33.8037 78.9865 23.6636 74.619 18.1179C74.619 18.1179 70.9188 25.1209 64.8528 22.6921C64.8528 22.6921 56.5223 29.9176 48.0299 27.8127C39.5376 25.7078 42.5504 5.8325 54.8642 4.98243C67.1781 4.13237 92.2305 9.09108 77.6722 33.8037Z" fill="black"/>
</svg>
