<svg width="182" height="143" viewBox="0 0 182 143" fill="none" xmlns="http://www.w3.org/2000/svg">
<path d="M20.0354 11.8915C20.0354 9.59518 19.6484 8.06002 18.8744 7.286C18.1261 6.48617 16.7071 6.08625 14.6172 6.08625H13.4562V26.211H16.1653V26.985H4.94189V26.211H7.65098V6.08625H6.48994C4.42587 6.08625 3.00682 6.48617 2.23279 7.286C1.48457 8.06002 1.11045 9.59518 1.11045 11.8915H0.336426V5.31223H20.8094V11.8915H20.0354Z" fill="#FE924A"/>
<path d="M32.8199 26.985H23.1445V26.211H25.0796V9.95639H23.1445V9.18236H30.8848V13.7878C31.117 12.5236 31.5298 11.4915 32.1232 10.6917C32.7424 9.89189 33.4133 9.36297 34.1357 9.10496C34.8839 8.84695 35.5934 8.71795 36.2643 8.71795C36.9609 8.71795 37.6188 8.84695 38.238 9.10496C38.8831 9.33717 39.3604 9.82738 39.67 10.5756C39.9796 11.298 39.9925 12.0334 39.7087 12.7816C39.4249 13.504 38.9218 14.02 38.1993 14.3296C37.5027 14.6393 36.8577 14.678 36.2643 14.4457C35.6709 14.2135 35.2451 13.9039 34.9871 13.5169C34.7291 13.1041 34.5485 12.7171 34.4453 12.3559C34.1873 11.4012 33.839 10.9239 33.4004 10.9239C32.9102 10.9239 32.3683 11.7754 31.7749 13.4782C31.1815 15.1553 30.8848 16.9355 30.8848 18.819V26.211H32.8199V26.985Z" fill="#FE924A"/>
<path d="M60.6228 26.211C60.3648 26.469 59.8746 26.7012 59.1522 26.9076C58.4298 27.0882 57.5912 27.1785 56.6366 27.1785C54.5209 27.1785 53.1922 26.5464 52.6504 25.2821C51.3603 26.6238 49.3865 27.2946 46.7291 27.2946C45.31 27.2946 44.1361 26.9721 43.2072 26.3271C42.3042 25.6562 41.8527 24.6758 41.8527 23.3858C41.8527 21.6571 42.5235 20.3283 43.8652 19.3995C45.2068 18.4449 47.5547 17.7741 50.9088 17.387L52.4569 17.1935V15.2972C52.4569 13.0525 52.2891 11.5431 51.9537 10.7691C51.6183 9.99509 50.9475 9.60808 49.9413 9.60808C48.9608 9.60808 48.3287 9.74998 48.0449 10.0338C47.7611 10.2918 47.6579 10.6014 47.7353 10.9626C47.8127 11.298 47.9417 11.7496 48.1223 12.3172C48.3029 12.8848 48.3932 13.3363 48.3932 13.6717C48.3932 14.4715 48.1094 15.1553 47.5418 15.7229C47 16.2647 46.3291 16.5356 45.5293 16.5356C44.7553 16.5356 44.0845 16.2647 43.5168 15.7229C42.9492 15.1553 42.6654 14.4715 42.6654 13.6717C42.6654 12.3559 43.3362 11.2335 44.6779 10.3047C46.0453 9.35007 48.0707 8.87275 50.754 8.87275C53.4631 8.87275 55.3853 9.40167 56.5205 10.4595C57.6815 11.5173 58.2621 13.3879 58.2621 16.0712V23.0374C58.2621 24.4049 58.4298 25.2692 58.7652 25.6304C59.1006 25.9658 59.7198 26.0303 60.6228 25.8239V26.211ZM47.2322 22.6117C47.3612 23.5922 47.7224 24.3533 48.3158 24.8951C48.9092 25.4111 49.593 25.6691 50.367 25.6691C51.1668 25.6691 51.8634 25.2821 52.4569 24.5081V17.9289L51.0636 18.1224C49.8768 18.2772 48.9092 18.7287 48.161 19.4769C47.4386 20.2251 47.129 21.2701 47.2322 22.6117Z" fill="#FE924A"/>
<path d="M70.6822 26.211H72.6172V26.985H62.9419V26.211H64.877V9.95639H63.3289V9.18236H70.6822V26.211ZM71.0305 4.07379C71.0305 5.00262 70.6951 5.80244 70.0242 6.47327C69.3792 7.11829 68.5794 7.4408 67.6247 7.4408C66.6959 7.4408 65.8961 7.11829 65.2253 6.47327C64.5544 5.80244 64.219 5.00262 64.219 4.07379C64.219 3.11915 64.5544 2.30642 65.2253 1.6356C65.8961 0.964776 66.6959 0.629364 67.6247 0.629364C68.5794 0.629364 69.3792 0.964776 70.0242 1.6356C70.6951 2.30642 71.0305 3.11915 71.0305 4.07379Z" fill="#FE924A"/>
<path d="M95.6566 26.211H97.5917V26.985H87.9163V26.211H89.8514V15.3746C89.8514 13.5427 89.5805 12.2398 89.0387 11.4657C88.4969 10.6917 87.6841 10.3047 86.6005 10.3047C85.1299 10.3047 83.9559 11.0787 83.0787 12.6268V26.211H85.0137V26.985H75.3384V26.211H77.2735V9.95639H75.3384V9.18236H83.0787V11.1948C83.5689 10.524 84.33 9.95639 85.3621 9.49197C86.4199 9.00176 87.5551 8.75665 88.7678 8.75665C93.3603 8.75665 95.6566 11.2464 95.6566 16.226V26.211Z" fill="#FE924A"/>
<path d="M63.759 138.642C83.1097 138.642 92.785 127.676 92.785 105.745H96.6552V142.512H5.70699V138.642H15.3823V38.0181H5.70699V34.148H94.7201V67.0441H90.85C90.85 55.5627 88.5279 47.887 83.8837 44.0168C79.3686 40.0177 72.0153 38.0181 61.8239 38.0181H44.4083V84.4597H52.1486C61.4369 84.4597 67.3066 83.2987 69.7577 80.9766C72.2088 78.6545 73.4343 74.0104 73.4343 67.0441H77.3045V105.745H73.4343C73.4343 98.5212 72.2088 93.8126 69.7577 91.6195C67.3066 89.4264 61.4369 88.3299 52.1486 88.3299H44.4083V138.642H63.759Z" fill="black"/>
<path d="M177.811 68.9059H181.681V109.542H92.8616V105.672L147.624 5.04864H135.24C123.242 5.04864 114.792 7.17721 109.89 11.4344C104.988 15.6915 102.537 24.5283 102.537 37.9448H98.6668V1.17851H180.327V5.04864L124.79 105.672H145.108C151.172 105.672 156.074 105.285 159.815 104.511C163.556 103.608 166.91 101.931 169.877 99.4799C175.166 94.8358 177.811 84.6444 177.811 68.9059Z" fill="black"/>
</svg>
